<svg xmlns="http://www.w3.org/2000/svg" width="65" height="65" viewBox="0 0 65 65">
    <defs>
        <style>
            .cls-1{fill:#e2a638}
        </style>
    </defs>
    <g id="book" transform="translate(-174 -2185)">
        <g id="Group_3235" transform="translate(155.5 2185)">
            <g id="Group_3234" transform="translate(25.5 5)">
                <g id="Group_3233">
                    <path id="Path_7164" d="M277.157 321.992a1.658 1.658 0 0 1-1.172-2.83l5.592-5.592-.221-.37a9.407 9.407 0 1 1 2.883 3.025l-.377-.251-5.532 5.532a1.648 1.648 0 0 1-1.173.486zm12.27-19.676a6.08 6.08 0 1 0 6.08 6.08 6.087 6.087 0 0 0-6.08-6.08z" class="cls-1" transform="translate(-247.864 -266.501)"/>
                    <path id="Path_7165" d="M31.58 60.491a6.087 6.087 0 0 1-6.08-6.08V11.08A6.087 6.087 0 0 1 31.58 5h38.8a1.66 1.66 0 0 1 1.658 1.658V29.65a1.658 1.658 0 1 1-3.316 0V8.316H31.58a2.767 2.767 0 0 0-2.763 2.763v37.863l.738-.262a6.046 6.046 0 0 1 2.026-.348h2.763V15.5a1.658 1.658 0 0 1 3.316 0v32.83h12.159a1.658 1.658 0 1 1 0 3.316H31.58a2.763 2.763 0 1 0 0 5.527h13.375a1.658 1.658 0 1 1 0 3.316z" class="cls-1" transform="translate(-25.5 -5)"/>
                </g>
            </g>
        </g>
        <path id="Rectangle_1562" fill="none" d="M0 0H65V65H0z" transform="translate(174 2185)"/>
    </g>
</svg>
