<svg xmlns="http://www.w3.org/2000/svg" width="50.925" height="45.966" viewBox="0 0 50.925 45.966">
    <g>
        <path fill="#e2a638" d="M50.922 39.541c-.232-11.572-14.353-20.1-25.46-10.389C14.364 19.447.235 27.963 0 39.541c-.085 4.242 1.713 8.326 5.2 11.811l19.209 19.1a1.493 1.493 0 0 0 2.106 0l19.209-19.1c3.486-3.485 5.283-7.569 5.198-11.811zM25.463 67.294L9.073 50.993h5.244a1.493 1.493 0 0 0 1.28-.724l1.146-1.909 4.276 6.718a1.494 1.494 0 0 0 2.608-.162l5.9-12.455 4.173 7.748a1.493 1.493 0 0 0 1.314.785h6.836zm19.276-19.285h-8.832l-5.15-9.562a1.494 1.494 0 0 0-2.663.069L22.086 51.2l-4.121-6.48a1.493 1.493 0 0 0-2.539.033l-1.953 3.255H6.186a12.7 12.7 0 0 1-3.2-8.408c.186-9.305 12.048-16.72 21.42-7.351a1.493 1.493 0 0 0 2.111 0c11.966-11.963 28.416 3.5 18.221 15.758z" transform="translate(0 -24.925)"/>
    </g>
</svg>
