<svg xmlns="http://www.w3.org/2000/svg" width="65" height="65" viewBox="0 0 65 65">
    <defs>
        <style>
            .cls-1{fill:#e2a638}
        </style>
    </defs>
    <g id="clock" transform="translate(-175 -1368.5)">
        <g id="Group_3232" transform="translate(157.5 1368.85)">
            <g id="Group_3231" transform="translate(25 5)">
                <g id="Group_3230">
                    <path id="Path_7160" d="M397.154 26.657a1.624 1.624 0 0 1-1.038-.377l-5.877-4.9a1.623 1.623 0 1 1 2.079-2.494l5.877 4.9a1.623 1.623 0 0 1-1.041 2.87z" class="cls-1" transform="translate(-350.19 -17.047)"/>
                    <path id="Path_7161" d="M39.668 26.658a1.623 1.623 0 0 1-1.041-2.87l5.877-4.9a1.623 1.623 0 1 1 2.079 2.494l-5.877 4.9a1.624 1.624 0 0 1-1.038.376z" class="cls-1" transform="translate(-36.632 -17.048)"/>
                    <path id="Path_7162" d="M50 59.329a25 25 0 0 1-2.119-49.91l.5-.041V6.623a1.623 1.623 0 1 1 3.247 0v2.754l.5.041a25.008 25.008 0 0 1 19.8 36.948 1.626 1.626 0 0 1-1.424.841 1.624 1.624 0 0 1-1.42-2.406 21.763 21.763 0 1 0-6.182 7.052 1.623 1.623 0 1 1 1.926 2.614A24.8 24.8 0 0 1 50 59.329z" class="cls-1" transform="translate(-25 -5)"/>
                    <path id="Path_7163" d="M224.788 172.906a3.788 3.788 0 1 1 .592-7.529l.308.049 7.021-8.676a1.623 1.623 0 1 1 2.524 2.043l-7.022 8.677.113.292a3.786 3.786 0 0 1-3.535 5.145z" class="cls-1" transform="translate(-199.788 -139.789)"/>
                </g>
            </g>
        </g>
        <path id="Rectangle_1559" fill="none" d="M0 0H65V65H0z" transform="translate(175 1368.5)"/>
    </g>
</svg>
