<svg xmlns="http://www.w3.org/2000/svg" width="65" height="65" viewBox="0 0 65 65">
    <defs>
        <style>
            .cls-1{fill:#e2a638}
        </style>
    </defs>
    <g id="idea" transform="translate(-3.918 .512)">
        <g id="Group_3218" transform="translate(4.918 -.512)">
            <g id="Group_3217">
                <path id="Path_7147" d="M132.824 110.461a17.027 17.027 0 0 0-12.845-4.63 17.325 17.325 0 0 0-16.28 17.1 17.752 17.752 0 0 0 9.111 15.309v8.513a8.215 8.215 0 1 0 16.429 0v-8.439a18.072 18.072 0 0 0 9.111-15.309 17.549 17.549 0 0 0-5.526-12.544zm-11.8 41.372a5.3 5.3 0 0 1-5-4.481h10.007a5.3 5.3 0 0 1-5.006 4.481zm5.228-7.468H115.8v-2.24h10.455zM127 136a1.494 1.494 0 0 0-.747 1.344v1.792H115.8v-1.792a1.569 1.569 0 0 0-.747-1.419 13.965 13.965 0 0 1-8.364-12.919 14.488 14.488 0 0 1 13.442-14.189h.9a14.413 14.413 0 0 1 14.338 14.189A14.264 14.264 0 0 1 127 136z" class="cls-1" transform="translate(-89.436 -90.671)"/>
                <path id="Path_7148" d="M215.959 11.052a1.494 1.494 0 0 0 1.494-1.494V1.494a1.494 1.494 0 0 0-2.987 0v8.065a1.494 1.494 0 0 0 1.493 1.493z" class="cls-1" transform="translate(-184.369)"/>
                <path id="Path_7149" d="M13.477 208.457H5.412a1.494 1.494 0 1 0 0 2.987h8.065a1.494 1.494 0 0 0 0-2.987z" class="cls-1" transform="translate(-3.918 -178.66)"/>
                <path id="Path_7150" d="M378.147 208.457h-8.065a1.494 1.494 0 0 0 0 2.987h8.065a1.494 1.494 0 0 0 0-2.987z" class="cls-1" transform="translate(-316.462 -178.66)"/>
                <path id="Path_7151" d="M65.119 63.292l5.75 5.676a1.419 1.419 0 0 0 2 .086c.03-.027.059-.056.086-.086a1.419 1.419 0 0 0 .086-2c-.027-.03-.056-.059-.086-.086L67.21 61.2a1.494 1.494 0 1 0-2.091 2.091z" class="cls-1" transform="translate(-55.859 -51.941)"/>
                <path id="Path_7152" d="M323.512 68.967a1.444 1.444 0 0 0 2.091 0l5.75-5.676a1.494 1.494 0 1 0-2.091-2.091l-5.75 5.676a1.419 1.419 0 0 0-.086 2c.027.035.056.063.086.091z" class="cls-1" transform="translate(-277.435 -51.94)"/>
            </g>
        </g>
        <path id="Rectangle_1560" fill="none" d="M0 0H65V65H0z" transform="translate(3.918 -.512)"/>
    </g>
</svg>
